<svg width="61" height="49" viewBox="0 0 61 49" fill="none" xmlns="http://www.w3.org/2000/svg">
<path d="M30.6296 27.0581L25.1618 23.1942C24.789 22.9322 24.3652 22.798 23.9392 22.798C23.6047 22.798 23.2703 22.8789 22.953 23.0429C22.233 23.4157 21.8027 24.1229 21.8027 24.9344V32.6622C21.8027 33.4737 22.233 34.1809 22.953 34.5537C23.675 34.9285 24.4994 34.871 25.1639 34.4046L30.6296 30.5407C31.2026 30.136 31.5306 29.5012 31.5306 28.8026C31.5306 28.0996 31.2026 27.4649 30.6296 27.0581Z" fill="#FF0050"/>
<path d="M48.0586 29.2645C46.1309 29.2645 44.3949 28.0461 43.7431 26.2292L42.595 23.0427C41.7472 20.689 39.9069 18.8486 37.5532 17.9988L34.3667 16.8528C32.5476 16.1925 31.3335 14.4608 31.3335 12.5373C31.3335 11.385 31.8064 10.3327 32.5455 9.50842H5.1468C2.80375 9.50842 0.886719 11.4255 0.886719 13.7685V43.8233C0.886719 46.1877 2.80375 48.0834 5.1468 48.0834H46.8316C49.1747 48.0834 51.0917 46.1877 51.0917 43.8233V28.0504C50.2674 28.7895 49.2152 29.2645 48.0586 29.2645ZM33.0908 34.0166L27.623 37.8805C26.5196 38.6601 25.2331 39.0563 23.9401 39.0563C22.9347 39.0563 21.9272 38.8177 20.9964 38.3364C18.8664 37.233 17.5458 35.0582 17.5458 32.6619V24.9342C17.5458 22.5379 18.8685 20.3631 20.9964 19.2597C23.1286 18.1606 25.6655 18.3289 27.623 19.7156L33.0908 23.5795C34.7842 24.7744 35.7938 26.7255 35.7938 28.798C35.7938 30.8706 34.7842 32.8217 33.0908 34.0166Z" fill="#FF0050"/>
<path d="M48.3662 0.283293L49.5164 3.47196C50.7923 7.01208 53.5805 9.80031 57.1206 11.0762L60.3093 12.2264C60.5969 12.3308 60.5969 12.7376 60.3093 12.842L57.1206 13.9922C53.5805 15.2681 50.7923 18.0563 49.5164 21.5965L48.3662 24.7851C48.2618 25.0727 47.855 25.0727 47.7506 24.7851L46.6004 21.5965C45.3245 18.0563 42.5363 15.2681 38.9961 13.9922L35.8075 12.842C35.5199 12.7376 35.5199 12.3308 35.8075 12.2264L38.9961 11.0762C42.5363 9.80031 45.3245 7.01208 46.6004 3.47196L47.7506 0.283293C47.855 -0.00426183 48.2618 -0.00426183 48.3662 0.283293Z" fill="#FF0050"/>
</svg>
