<svg width="31" height="33" viewBox="0 0 31 33" fill="none" xmlns="http://www.w3.org/2000/svg">
<path fill-rule="evenodd" clip-rule="evenodd" d="M23.4733 0.557861C23.9647 0.557861 24.3907 0.89787 24.4996 1.37703L25.082 3.93808C25.3513 5.12264 26.2763 6.04762 27.4609 6.31696L30.0219 6.89934C30.5011 7.00827 30.8411 7.43429 30.8411 7.92567C30.8411 8.41705 30.5011 8.84307 30.0219 8.95201L27.4609 9.53438C26.2763 9.80373 25.3513 10.7287 25.082 11.9133L24.4996 14.4743C24.3907 14.9535 23.9647 15.2935 23.4733 15.2935C22.9819 15.2935 22.5559 14.9535 22.4469 14.4743L21.8646 11.9133C21.5952 10.7287 20.6702 9.80373 19.4857 9.53438L16.9246 8.95201C16.4455 8.84307 16.1055 8.41705 16.1055 7.92567C16.1055 7.43429 16.4455 7.00827 16.9246 6.89934L19.4857 6.31696C20.6702 6.04762 21.5952 5.12264 21.8646 3.93808L22.4469 1.37703C22.5559 0.89787 22.9819 0.557861 23.4733 0.557861Z" fill="white"/>
<path fill-rule="evenodd" clip-rule="evenodd" d="M17.2578 11.6096C15.6732 11.6096 14.3633 12.8915 14.3633 14.5041C14.3633 16.1167 15.6732 17.3986 17.2578 17.3986C18.8424 17.3986 20.1523 16.1167 20.1523 14.5041C20.1523 12.8915 18.8424 11.6096 17.2578 11.6096Z" fill="white"/>
<path fill-rule="evenodd" clip-rule="evenodd" d="M4.52854 6.87311H14.7472C14.6055 7.1974 14.5277 7.55405 14.5277 7.92565C14.5277 8.29725 14.6055 8.65391 14.7472 8.9782H4.52854C3.36593 8.9782 2.42345 9.9207 2.42345 11.0833V20.0413C7.05596 18.8695 11.7291 20.1175 15.1151 23.0086C17.3522 21.5772 19.9894 21.2217 22.4218 21.8221V16.6528C22.7461 16.7945 23.1027 16.8723 23.4743 16.8723C23.8459 16.8723 24.2026 16.7945 24.5269 16.6528V23.256C24.5273 23.2718 24.5273 23.2877 24.5269 23.3036V27.924C24.5269 30.2492 22.6419 32.1342 20.3167 32.1342H4.52854C2.20332 32.1342 0.318359 30.2492 0.318359 27.924V11.0833C0.318359 8.75806 2.20332 6.87311 4.52854 6.87311Z" fill="white"/>
</svg>
