<svg width="32" height="33" viewBox="0 0 32 33" fill="none" xmlns="http://www.w3.org/2000/svg">
<path fill-rule="evenodd" clip-rule="evenodd" d="M0.160156 17.8261H4.9869C6.65156 17.8261 8.13662 16.7822 8.70056 15.2162L9.99962 11.6071C10.1506 11.1887 10.5621 10.9228 11.0051 10.9573C11.4482 10.9919 11.8133 11.3185 11.8972 11.7551C12.617 15.4974 13.4957 20.0661 14.2018 23.7383C14.4499 25.0285 15.5191 26.0009 16.827 26.1258C18.1355 26.2511 19.3694 25.4987 19.8573 24.2786L21.5472 20.0533C21.8472 19.3043 22.5729 18.8129 23.3796 18.8129H29.7629V25.2268C29.7629 27.0588 29.0352 28.8157 27.7396 30.1108C26.4445 31.4064 24.6875 32.1342 22.8556 32.1342C18.1947 32.1342 11.7284 32.1342 7.06747 32.1342C5.23555 32.1342 3.47863 31.4064 2.18351 30.1108C0.887898 28.8157 0.160156 27.0588 0.160156 25.2268V17.8261ZM0.160156 15.8526V9.43869C0.160156 7.60678 0.887898 5.84986 2.18351 4.55474C3.47863 3.25912 5.23555 2.53138 7.06747 2.53138H21.9902L22.1693 2.05625C22.5093 1.15484 23.3722 0.557861 24.3358 0.557861C25.2993 0.557861 26.1622 1.15484 26.5022 2.05625L27.5215 4.75948C27.5225 4.76244 27.5245 4.7654 27.5264 4.76786C27.5289 4.76984 27.5319 4.77182 27.5348 4.7728L30.2381 5.79213C31.1395 6.13207 31.7365 6.99498 31.7365 7.95856C31.7365 8.92213 31.1395 9.78504 30.2381 10.125L29.7629 10.3041V16.8394H23.3796C21.7657 16.8394 20.3142 17.8222 19.7147 19.3206C19.2574 20.4638 18.6426 22.0011 18.0249 23.5454C17.8621 23.9524 17.4511 24.2031 17.015 24.1611C16.5788 24.1197 16.2226 23.7955 16.1397 23.3653L13.8351 11.3821C13.5835 10.0732 12.4877 9.09382 11.1581 8.99021C9.82892 8.8866 8.59448 9.68391 8.14303 10.9386L6.84397 14.5476C6.56176 15.3306 5.81923 15.8526 4.9869 15.8526H0.160156ZM24.016 2.75241C24.0664 2.6192 24.1937 2.53138 24.3358 2.53138C24.4778 2.53138 24.6051 2.6192 24.6555 2.75241L25.6748 5.45614C25.7749 5.72158 25.9303 5.96234 26.1312 6.16314C26.332 6.36395 26.5727 6.51937 26.8382 6.61953L29.5419 7.63884C29.6751 7.68916 29.7629 7.81646 29.7629 7.95856C29.7629 8.10065 29.6751 8.22795 29.5419 8.27827L26.8382 9.29758C26.5727 9.39774 26.332 9.55316 26.1312 9.75397C25.9303 9.95477 25.7749 10.1955 25.6748 10.461L24.6555 13.1647C24.6051 13.2979 24.4778 13.3857 24.3358 13.3857C24.1937 13.3857 24.0664 13.2979 24.016 13.1647L22.9967 10.461C22.8966 10.1955 22.7412 9.95477 22.5404 9.75397C22.3396 9.55316 22.0988 9.39774 21.8333 9.29758L19.1296 8.27827C18.9964 8.22795 18.9086 8.10065 18.9086 7.95856C18.9086 7.81646 18.9964 7.68916 19.1296 7.63884L21.8333 6.61953C22.0988 6.51937 22.3396 6.36395 22.5404 6.16314C22.7412 5.96234 22.8966 5.72158 22.9967 5.45614L24.016 2.75241Z" fill="white"/>
</svg>
