<svg width="253" height="253" viewBox="0 0 253 253" fill="none" xmlns="http://www.w3.org/2000/svg">
<path d="M252.357 74.3829C251.764 60.94 249.59 51.6981 246.475 43.6899C243.262 35.1894 238.319 27.5789 231.842 21.2523C225.514 14.8272 217.852 9.83458 209.448 6.67222C201.392 3.55813 192.197 1.38425 178.752 0.791554C165.206 0.148658 160.905 0 126.549 0C92.1931 0 87.8928 0.148658 74.3971 0.741358C60.9516 1.33406 51.708 3.50987 43.7002 6.62203C35.1961 9.83458 27.5842 14.777 21.2563 21.2523C14.83 27.5789 9.83838 35.2396 6.6735 43.6417C3.55881 51.6981 1.38452 60.8898 0.791705 74.3327C0.148686 87.876 0 92.1755 0 126.525C0 160.875 0.148686 165.174 0.741499 178.667C1.33431 192.11 3.51054 201.352 6.62522 209.36C9.83838 217.861 14.83 225.471 21.2563 231.798C27.5842 238.223 35.2463 243.216 43.65 246.378C51.708 249.492 60.9014 251.666 74.3488 252.259C87.8426 252.853 92.1448 253 126.501 253C160.857 253 165.157 252.853 178.653 252.259C192.099 251.666 201.342 249.492 209.35 246.378C226.356 239.804 239.802 226.361 246.377 209.36C249.489 201.304 251.666 192.11 252.259 178.667C252.851 165.174 253 160.875 253 126.525C253 92.1755 252.95 87.876 252.357 74.3829ZM229.569 177.679C229.025 190.035 226.949 196.707 225.219 201.155C220.967 212.177 212.218 220.925 201.194 225.176C196.745 226.906 190.023 228.981 177.713 229.524C164.366 230.118 160.363 230.265 126.599 230.265C92.8361 230.265 88.783 230.118 75.4843 229.524C63.1259 228.981 56.4524 226.906 52.0034 225.176C46.5175 223.149 41.524 219.936 37.4708 215.735C33.269 211.633 30.0558 206.69 28.0283 201.205C26.2981 196.757 24.2223 190.035 23.6797 177.729C23.085 164.385 22.9382 160.38 22.9382 126.624C22.9382 92.8667 23.085 88.8143 23.6797 75.5201C24.2223 63.1641 26.2981 56.4919 28.0283 52.0437C30.0558 46.5569 33.269 41.5662 37.521 37.5119C41.6225 33.3109 46.5658 30.0984 52.0536 28.0731C56.5026 26.3433 63.2263 24.2679 75.5345 23.7235C88.8815 23.1308 92.8863 22.9821 126.648 22.9821C160.461 22.9821 164.464 23.1308 177.763 23.7235C190.121 24.2679 196.795 26.3433 201.244 28.0731C206.73 30.0984 211.723 33.3109 215.776 37.5119C219.978 41.6145 223.191 46.5569 225.219 52.0437C226.949 56.4919 229.025 63.2124 229.569 75.5201C230.162 88.8645 230.311 92.8667 230.311 126.624C230.311 160.38 230.162 164.334 229.569 177.679Z" fill="white"/>
<path d="M126.55 61.5325C90.6625 61.5325 61.5452 90.6424 61.5452 126.525C61.5452 162.407 90.6625 191.517 126.55 191.517C162.439 191.517 191.555 162.407 191.555 126.525C191.555 90.6424 162.439 61.5325 126.55 61.5325ZM126.55 168.684C103.268 168.684 84.383 149.804 84.383 126.525C84.383 103.245 103.268 84.3659 126.55 84.3659C149.834 84.3659 168.717 103.245 168.717 126.525C168.717 149.804 149.834 168.684 126.55 168.684Z" fill="white"/>
<path d="M209.302 58.9628C209.302 67.3417 202.507 74.1355 194.124 74.1355C185.744 74.1355 178.949 67.3417 178.949 58.9628C178.949 50.582 185.744 43.79 194.124 43.79C202.507 43.79 209.302 50.582 209.302 58.9628Z" fill="white"/>
</svg>
